<?xml version="1.0" encoding="utf-8"?>
<!-- Generator: Adobe Illustrator 16.0.0, SVG Export Plug-In . SVG Version: 6.00 Build 0)  -->
<!DOCTYPE svg PUBLIC "-//W3C//DTD SVG 1.1//EN" "http://www.w3.org/Graphics/SVG/1.1/DTD/svg11.dtd">
<svg version="1.1" id="Calque_1" xmlns="http://www.w3.org/2000/svg" xmlns:xlink="http://www.w3.org/1999/xlink" x="0px" y="0px"
	 width="785.282px" height="129.581px" viewBox="0 0 785.282 129.581" enable-background="new 0 0 785.282 129.581"
	 xml:space="preserve">
<g>
	<path fill="#70767A" d="M283.744-157.606c-6.933,0-12.476-1.49-16.499-4.335c-4.107-2.835-6.933-6.183-8.287-10.17
		c-1.207-4.089-1.627-7.811-0.969-11.286l6.924-36.821c0.759-3.942,2.844-7.783,6.246-11.506c3.439-3.723,7.253-6.832,11.414-9.192
		c4.162-2.368,7.573-3.448,10.061-3.448h74.027l-3.832,20.322h-57.885c-2.24,0-4.445,0.613-6.969,1.985
		c-2.359,1.372-4.381,2.973-6.128,4.93c-1.72,2.03-2.817,3.868-3.165,5.615l-3.841,20.313c-0.348,1.976-0.201,3.859,0.576,5.717
		c0.631,1.865,1.839,3.338,3.567,4.582c1.765,1.225,3.887,1.838,6.228,1.838h59.65l-4.043,21.456H283.744z"/>
	<path fill="#70767A" d="M454.719-157.606l1.134-6.063c-0.896,1.49-2.634,2.835-4.865,4.226c-2.359,1.226-4.326,1.838-5.945,1.838
		h-70.543c-1.865,0-3.75-0.466-5.424-1.49c-1.682-0.979-3.018-2.342-3.95-4.089c-0.888-1.856-1.116-3.832-0.714-6.082
		c0.805-4.207,1.701-9.631,2.927-16.215c1.098-6.448,1.774-9.915,1.82-10.309c0.942-4.957,3.027-8.779,6.137-11.532
		c3.119-2.845,6.384-4.189,9.841-4.189h66.701c3.119,0,5.57,0.741,7.629,2.369c2.039,1.582,3.355,3.063,4.069,4.683l1.481-7.93
		c0.32-1.628,0.138-3.384-0.549-5.085c-0.648-1.737-1.773-3.101-3.384-4.253c-1.555-1.079-3.64-1.701-5.999-1.701H375.24
		l3.933-20.936h89.996c3.869,0,7.28,0.852,10.28,2.699c2.981,1.855,5.524,4.362,7.563,7.316c2.059,3,3.467,5.973,4.345,9.173
		c0.769,3.247,0.951,6.092,0.503,8.57l-11.112,59H454.719z M454.143-187.614c-0.558-0.851-1.399-1.609-2.552-2.231
		c-1.024-0.467-1.939-0.731-2.689-0.731h-49.232c-2.231,0-3.951,0.731-5.112,2.24c-1.188,1.601-1.894,2.717-2.067,3.585
		c-0.338,1.857,0.037,3.211,0.915,4.345c0.933,1.134,2.075,1.61,3.173,1.61h51.465c1.125,0,2.469-0.613,4.052-1.747
		c1.601-1.253,2.47-2.589,2.734-4.052C455.065-185.739,454.864-186.736,454.143-187.614z"/>
	<path fill="#70767A" d="M574.476-157.652l-20.578-29.156h-31.471l-6.238,28.982h-24.502l10.555-51.281h76.404
		c1.602,0,3.146-0.677,4.994-1.92c1.646-1.171,2.717-2.863,3.146-5.168c0.348-1.619,0.146-2.808-0.32-3.851
		c-0.576-0.914-1.381-1.609-2.369-2.012c-1.098-0.549-2.305-0.641-3.64-0.641h-75.563l4.225-21.667h92.237
		c4.308,0,7.765,1.701,10.124,5.086c2.471,3.393,3.165,7.509,2.25,12.319l-4.453,23.295c-0.824,4.097-2.205,7.316-4.217,9.558
		c-2.012,2.277-4.152,3.85-6.338,4.655c-2.204,0.96-4.738,1.463-7.601,1.856c-2.845,0.384-4.499,0.713-4.948,0.787l19.911,29.156
		H574.476z"/>
	<path fill="#EF3C42" d="M30.676-190.979l-6.667,33.3L0-157.606l10.115-54.116h69.29l-3.915,20.743H30.676z"/>
	<path fill="#70767A" d="M660.658-157.68l-24.009,0.073l12.549-67.451h24.438L660.658-157.68z"/>
	<path fill="#EF3C42" d="M11.698-223.695l4.381-19.983h69.29l-3.476,19.983H11.698z"/>
	<path fill="#70767A" d="M624.925-223.695l4.371-19.983h69.291l-3.477,19.983H624.925z"/>
	<path fill="#70767A" d="M705.894-223.695l4.381-19.983h69.29l-3.476,19.983H705.894z"/>
	<path fill="#70767A" d="M701.046-190.971l4.381-19.993h69.291l-3.477,19.993H701.046z"/>
	<path fill="#70767A" d="M694.196-157.606l4.371-19.983h69.291l-3.467,19.983H694.196z"/>
	<path fill="#EF3C42" d="M90.051-157.606l10.024-54.116h24.438l-9.631,54.116H90.051z"/>
	<path fill="#EF3C42" d="M102.544-223.695l3.604-19.992h24.786l-3.64,19.992H102.544z"/>
	<path fill="#EF3C42" d="M226.417-244.018c6.915,0,12.438,1.491,16.427,4.317c4.097,2.826,6.914,6.155,8.249,10.124
		c1.226,4.08,1.638,7.783,0.97,11.25l-6.896,36.666c-0.75,3.933-2.817,7.756-6.219,11.469c-3.421,3.705-7.216,6.805-11.359,9.146
		c-4.152,2.369-7.555,3.438-10.024,3.438h-73.735l3.823-20.239h57.656c2.231,0,4.427-0.604,6.941-1.977
		c2.342-1.371,4.363-2.972,6.091-4.911c1.729-2.021,2.817-3.851,3.156-5.588l3.823-20.23c0.347-1.976,0.201-3.851-0.567-5.698
		c-0.631-1.856-1.829-3.329-3.549-4.563c-1.774-1.217-3.878-1.829-6.201-1.829h-35.65l-11.908,65.036h-23.615l15.786-86.411H226.417
		z"/>
</g>
<g>
	<path fill="#70767A" d="M286.744,90.394c-6.933,0-12.476-1.49-16.499-4.335c-4.107-2.835-6.933-6.183-8.287-10.17
		c-1.207-4.089-1.627-7.811-0.969-11.286l6.924-36.821c0.759-3.942,2.844-7.783,6.246-11.506c3.439-3.723,7.253-6.832,11.414-9.192
		c4.162-2.368,7.573-3.448,10.061-3.448h74.027l-3.832,20.322h-57.885c-2.24,0-4.445,0.613-6.969,1.985
		c-2.359,1.372-4.381,2.973-6.128,4.93c-1.72,2.03-2.817,3.868-3.165,5.615l-3.841,20.313c-0.348,1.976-0.201,3.859,0.576,5.717
		c0.631,1.865,1.839,3.338,3.567,4.582c1.765,1.225,3.887,1.838,6.228,1.838h59.65l-4.043,21.456H286.744z"/>
	<path fill="#70767A" d="M457.719,90.394l1.134-6.063c-0.896,1.49-2.634,2.835-4.865,4.226c-2.359,1.226-4.326,1.838-5.945,1.838
		h-70.543c-1.865,0-3.75-0.466-5.424-1.49c-1.682-0.979-3.018-2.342-3.95-4.089c-0.888-1.856-1.116-3.832-0.714-6.082
		c0.805-4.207,1.701-9.631,2.927-16.215c1.098-6.448,1.774-9.915,1.82-10.309c0.942-4.957,3.027-8.779,6.137-11.532
		c3.119-2.845,6.384-4.189,9.841-4.189h66.701c3.119,0,5.57,0.741,7.629,2.369c2.039,1.582,3.355,3.063,4.069,4.683l1.481-7.93
		c0.32-1.628,0.138-3.384-0.549-5.085c-0.648-1.737-1.773-3.101-3.384-4.253c-1.555-1.079-3.64-1.701-5.999-1.701H378.24
		l3.933-20.936h89.996c3.869,0,7.28,0.852,10.28,2.699c2.981,1.855,5.524,4.362,7.563,7.316c2.059,3,3.467,5.973,4.345,9.173
		c0.769,3.247,0.951,6.092,0.503,8.57l-11.112,59H457.719z M457.143,60.386c-0.558-0.851-1.399-1.609-2.552-2.231
		c-1.024-0.467-1.939-0.731-2.689-0.731h-49.232c-2.231,0-3.951,0.731-5.112,2.24c-1.188,1.601-1.894,2.717-2.067,3.585
		c-0.338,1.857,0.037,3.211,0.915,4.345c0.933,1.134,2.075,1.61,3.173,1.61h51.465c1.125,0,2.469-0.613,4.052-1.747
		c1.601-1.253,2.47-2.589,2.734-4.052C458.065,62.261,457.864,61.264,457.143,60.386z"/>
	<path fill="#70767A" d="M577.476,90.348l-20.578-29.156h-31.471l-6.238,28.982h-24.502l10.555-51.281h76.404
		c1.602,0,3.146-0.677,4.994-1.92c1.646-1.171,2.717-2.863,3.146-5.168c0.348-1.619,0.146-2.808-0.32-3.851
		c-0.576-0.914-1.381-1.609-2.369-2.012c-1.098-0.549-2.305-0.641-3.64-0.641h-75.563l4.225-21.667h92.237
		c4.308,0,7.765,1.701,10.124,5.086c2.471,3.393,3.165,7.509,2.25,12.319l-4.453,23.295c-0.824,4.097-2.205,7.316-4.217,9.558
		c-2.012,2.277-4.152,3.85-6.338,4.655c-2.204,0.96-4.738,1.463-7.601,1.856c-2.845,0.384-4.499,0.713-4.948,0.787l19.911,29.156
		H577.476z"/>
	<path fill="#EF3C42" d="M33.676,57.021l-6.667,33.3L3,90.394l10.115-54.116h69.29l-3.915,20.743H33.676z"/>
	<path fill="#70767A" d="M663.658,90.32l-24.009,0.073l12.549-67.451h24.438L663.658,90.32z"/>
	<path fill="#EF3C42" d="M14.698,24.305l4.381-19.983h69.29l-3.476,19.983H14.698z"/>
	<path fill="#70767A" d="M627.925,24.305l4.371-19.983h69.291l-3.477,19.983H627.925z"/>
	<path fill="#70767A" d="M708.894,24.305l4.381-19.983h69.29l-3.476,19.983H708.894z"/>
	<path fill="#70767A" d="M704.046,57.029l4.381-19.993h69.291l-3.477,19.993H704.046z"/>
	<path fill="#70767A" d="M697.196,90.394l4.371-19.983h69.291l-3.467,19.983H697.196z"/>
	<path fill="#EF3C42" d="M93.051,90.394l10.024-54.116h24.438l-9.631,54.116H93.051z"/>
	<path fill="#EF3C42" d="M105.544,24.305l3.604-19.992h24.786l-3.64,19.992H105.544z"/>
	<path fill="#EF3C42" d="M229.417,3.982c6.915,0,12.438,1.491,16.427,4.317c4.097,2.826,6.914,6.155,8.249,10.124
		c1.226,4.08,1.638,7.783,0.97,11.25l-6.896,36.666c-0.75,3.933-2.817,7.756-6.219,11.469c-3.421,3.705-7.216,6.805-11.359,9.146
		c-4.152,2.369-7.555,3.438-10.024,3.438h-73.735l3.823-20.239h57.656c2.231,0,4.427-0.604,6.941-1.977
		c2.342-1.371,4.363-2.972,6.091-4.911c1.729-2.021,2.817-3.851,3.156-5.588l3.823-20.23c0.347-1.976,0.201-3.851-0.567-5.698
		c-0.631-1.856-1.829-3.329-3.549-4.563c-1.774-1.217-3.878-1.829-6.201-1.829h-35.65l-11.908,65.036h-23.615l15.786-86.411H229.417
		z"/>
</g>
<g>
	<g>
		<g>
			<g>
				<path fill="#EF3C42" d="M514.677,114.464H500.22c-1.548,0-2.812,1.262-2.812,2.811v6.209c0,1.543,1.264,2.81,2.812,2.81h6.614
					c2.17,0,2.809-0.88,2.809-1.95c0-1.065-0.827-1.937-2.809-1.937h-6.046v-3.938h9.957c1.545,0,2.813,1.27,2.813,2.816v6.145
					c0,1.548-1.268,2.814-2.813,2.814h-14.475c-1.55,0-2.813-1.267-2.813-2.814v-10.583c0-4.303,1.432-6.314,4.849-6.314h16.371
					V114.464z"/>
				<path fill="#7F8388" d="M514.677,110.532h16.599c3.417,0,4.848,2.012,4.848,6.314v10.583c0,1.548-1.267,2.814-2.81,2.814
					h-14.478c-1.546,0-2.813-1.267-2.813-2.814v-6.145c0-1.547,1.268-2.816,2.813-2.816h9.955v3.938h-6.045
					c-1.985,0-2.814,0.871-2.814,1.937c0,1.07,0.644,1.95,2.814,1.95h6.618c1.544,0,2.809-1.267,2.809-2.81v-6.209
					c0-1.549-1.265-2.811-2.809-2.811h-14.688V110.532z"/>
			</g>
		</g>
	</g>
	<g>
		<path fill="#70767A" d="M560.055,121.175c-0.406,5.218-4.974,8.406-9.315,8.406c-5.269,0-9.452-4.254-9.452-9.106
			c0-4.602,3.785-9.106,9.425-9.106c4.669,0,7.646,3.172,8.34,4.965h-2.049c-1.002-1.721-3.334-3.396-6.264-3.396
			c-4.45,0-7.693,3.629-7.693,7.568c0,3.934,3.243,7.493,7.768,7.493c3.738,0,6.497-2.762,7.118-5.22h-9.833v-1.604H560.055z"/>
		<path fill="#70767A" d="M563.365,111.667h4.478c2.362,0,3.523,0.262,4.338,0.643c1.976,0.948,3.143,2.844,3.143,5.017
			c0,2.571-1.835,5.137-5.24,5.362l4.98,6.59h-2.225l-5.974-7.982c2.238,0,3.002-0.028,3.782-0.29
			c1.934-0.501,2.91-2.135,2.91-3.719c0-1.383-0.782-2.805-1.925-3.36c-1.058-0.574-1.957-0.669-3.427-0.669h-3.073v16.021h-1.768
			V111.667z"/>
		<path fill="#70767A" d="M587.086,111.368c4.951,0,9.34,3.872,9.34,9.106c0,5.181-4.41,9.106-9.34,9.106
			c-4.997,0-9.303-4.063-9.303-9.02C577.783,115.013,582.389,111.368,587.086,111.368 M587.086,127.998
			c4.079,0,7.571-3.333,7.571-7.493c0-4.133-3.407-7.568-7.571-7.568c-3.979,0-7.553,3.244-7.553,7.625
			C579.533,124.581,582.987,127.998,587.086,127.998"/>
		<path fill="#70767A" d="M601.59,111.667v10.958c0,1.313,0.191,2.455,0.602,3.2c1.063,1.981,2.805,2.173,3.648,2.173
			c0.818,0,2.565-0.191,3.639-2.173c0.401-0.745,0.596-1.888,0.596-3.2v-10.958h1.753v10.958c0,1.5-0.229,2.727-0.657,3.672
			c-1.223,2.646-3.688,3.284-5.33,3.284c-1.651,0-4.125-0.639-5.343-3.284c-0.433-0.945-0.662-2.172-0.662-3.672v-10.958H601.59z"/>
		<path fill="#70767A" d="M616.027,111.667h4.908c2.429,0,3.569,0.357,4.544,1.017c1.319,0.886,2.183,2.396,2.183,4.247
			c0,1.823-0.863,3.345-2.183,4.213c-0.975,0.641-2.115,1.001-4.544,1.001h-3.151v7.134h-1.757V111.667z M617.784,120.588h2.555
			c1.876,0,2.518,0,3.517-0.466c1.391-0.631,2.053-1.888,2.053-3.191c0-1.371-0.662-2.604-2.053-3.22
			c-0.999-0.453-1.641-0.453-3.517-0.453h-2.555V120.588z"/>
		<polygon fill="#70767A" points="630.612,111.667 640.246,111.667 640.246,113.258 632.366,113.258 632.366,119.593 
			639.987,119.593 639.987,121.175 632.366,121.175 632.366,127.674 640.246,127.674 640.246,129.278 630.612,129.278 		"/>
		<path fill="#EF3C42" d="M653.307,111.667h1.979l7.557,17.611h-1.925l-2.535-5.935h-8.203l-2.568,5.935h-1.838L653.307,111.667z
			 M650.849,121.76h6.833l-3.379-8.116L650.849,121.76z"/>
		<path fill="#EF3C42" d="M665.472,111.667h5.141c2.161,0,4.317,0.49,5.744,1.452c3.108,1.919,4.004,5.269,4.004,7.397
			c0,1.628-0.644,5.139-4.004,7.323c-1.427,0.928-3.583,1.438-5.744,1.438h-5.141V111.667z M667.236,127.674h2.55
			c1.604,0,4.031,0,6.055-1.426c1.068-0.896,2.745-2.751,2.745-5.822c0-2.321-1.167-4.494-2.995-5.813
			c-1.563-1.026-3.217-1.354-5.805-1.354h-2.55V127.674z"/>
		<path fill="#EF3C42" d="M689.829,111.667h1.992l7.572,17.611h-1.951l-2.539-5.935h-8.18l-2.565,5.935h-1.831L689.829,111.667z
			 M687.403,121.76h6.808l-3.375-8.116L687.403,121.76z"/>
		<polygon fill="#EF3C42" points="702.053,111.667 704.785,111.667 711.168,126.662 717.608,111.667 720.34,111.667 720.34,129.278 
			718.569,129.278 718.569,113.586 718.524,113.586 711.918,129.278 710.414,129.278 703.858,113.586 703.816,113.586 
			703.816,129.278 702.053,129.278 		"/>
		<rect x="724.543" y="111.667" fill="#EF3C42" width="1.761" height="17.611"/>
		<polygon fill="#EF3C42" points="730.509,111.667 732.867,111.667 742.725,126.297 742.757,126.297 742.757,111.667 
			744.517,111.667 744.517,129.278 742.757,129.278 732.318,113.775 732.278,113.775 732.278,129.278 730.509,129.278 		"/>
		<path fill="#EF3C42" d="M766.628,121.175c-0.396,5.218-4.955,8.406-9.288,8.406c-5.262,0-9.453-4.254-9.453-9.106
			c0-4.602,3.793-9.106,9.434-9.106c4.662,0,7.633,3.172,8.339,4.965h-2.049c-1.016-1.721-3.348-3.396-6.271-3.396
			c-4.457,0-7.682,3.629-7.682,7.568c0,3.934,3.225,7.493,7.746,7.493c3.74,0,6.519-2.762,7.142-5.22h-9.85v-1.604H766.628z"/>
	</g>
</g>
</svg>
