<?xml version="1.0" encoding="utf-8"?>
<!-- Generator: Adobe Illustrator 16.0.0, SVG Export Plug-In . SVG Version: 6.00 Build 0)  -->
<!DOCTYPE svg PUBLIC "-//W3C//DTD SVG 1.1//EN" "http://www.w3.org/Graphics/SVG/1.1/DTD/svg11.dtd">
<svg version="1.1" id="Calque_1" xmlns="http://www.w3.org/2000/svg" xmlns:xlink="http://www.w3.org/1999/xlink" x="0px" y="0px"
	 width="877px" height="172px" viewBox="0 0 877 172" enable-background="new 0 0 877 172" xml:space="preserve">
<g>
	<path fill="#8E979D" d="M670.949,143.728h7.034c0.024,0.28,0.04,0.551,0.045,0.812c0.008,0.262,0.01,0.579,0.01,0.956
		c0,2.988-0.357,4.84-1.072,5.556c-0.363,0.353-1.018,0.611-1.963,0.774c-0.945,0.164-2.193,0.246-3.745,0.246
		c-2.92,0-4.799-0.418-5.635-1.254c-0.812-0.813-1.218-2.685-1.218-5.617v-3.872c0-1.248,0.115-2.268,0.346-3.062
		c0.229-0.794,0.575-1.392,1.036-1.791c0.969-0.824,2.823-1.236,5.562-1.236c2.836,0,4.647,0.267,5.436,0.8
		c0.8,0.497,1.199,1.672,1.199,3.526v0.582h-1.763v-0.382c0-1.357-0.284-2.199-0.854-2.527c-0.278-0.157-0.771-0.278-1.479-0.363
		c-0.707-0.085-1.66-0.127-2.857-0.127c-2.154,0-3.514,0.267-4.082,0.8c-0.545,0.509-0.817,1.787-0.817,3.835v4.763
		c0,0.981,0.079,1.781,0.236,2.399c0.158,0.618,0.375,1.048,0.652,1.291c0.63,0.484,2.257,0.727,4.881,0.727
		c0.98,0,1.779-0.057,2.396-0.173c0.617-0.114,1.041-0.294,1.271-0.536c0.253-0.23,0.442-0.648,0.563-1.254
		c0.121-0.606,0.182-1.388,0.182-2.345c-0.013-0.013-0.024-0.1-0.036-0.265c-0.013-0.162-0.024-0.329-0.037-0.499v-0.255h-5.289
		V143.728z"/>
	<path fill="#8E979D" d="M688.399,148.454h1.654v0.399c0,1.2-0.364,2.042-1.091,2.527c-0.703,0.46-1.97,0.69-3.799,0.69
		c-2.121,0-3.515-0.388-4.182-1.163c-0.666-0.775-0.999-2.412-0.999-4.908c0-2.314,0.327-3.854,0.981-4.617
		c0.69-0.787,1.999-1.182,3.926-1.182c2.133,0,3.521,0.346,4.163,1.036c0.666,0.631,1,2.061,1,4.29v0.891h-8.344
		c0,1.891,0.198,3.078,0.599,3.563c0.397,0.51,1.328,0.764,2.792,0.764c1.377,0,2.259-0.121,2.646-0.363
		c0.434-0.267,0.652-0.794,0.652-1.581V148.454z M688.399,145.164v-0.582c-0.036-0.654-0.104-1.178-0.199-1.572
		c-0.097-0.393-0.254-0.699-0.473-0.918c-0.373-0.375-1.263-0.563-2.663-0.563c-0.653,0-1.215,0.063-1.688,0.191
		c-0.471,0.126-0.809,0.3-1.015,0.518c-0.169,0.242-0.311,0.616-0.426,1.118c-0.115,0.503-0.178,1.105-0.19,1.809H688.399z"/>
	<path fill="#8E979D" d="M701.687,143.328h-1.636c-0.061-0.8-0.225-1.297-0.491-1.49c-0.351-0.206-1.205-0.31-2.563-0.31
		c-1.272,0-2.078,0.097-2.418,0.291c-0.157,0.121-0.28,0.317-0.373,0.592c-0.09,0.271-0.136,0.59-0.136,0.953
		c0,1.224,0.569,1.86,1.709,1.909l3.09,0.163c2.097,0.109,3.145,1.193,3.145,3.254c0,0.654-0.088,1.203-0.263,1.646
		c-0.177,0.442-0.428,0.784-0.755,1.026c-0.679,0.473-1.945,0.709-3.799,0.709c-1.915,0-3.224-0.225-3.927-0.673
		c-0.702-0.448-1.054-1.284-1.054-2.508v-0.618h1.727v0.527c0,0.388,0.052,0.706,0.154,0.954c0.104,0.249,0.245,0.445,0.428,0.591
		c0.388,0.267,1.163,0.399,2.326,0.399c1.442,0,2.369-0.133,2.781-0.399c0.437-0.267,0.654-0.843,0.654-1.728
		c0-1.248-0.558-1.872-1.672-1.872c-2.558,0-4.254-0.218-5.09-0.654c-0.788-0.399-1.182-1.284-1.182-2.653
		c0-1.297,0.314-2.163,0.945-2.6c0.605-0.424,1.878-0.637,3.817-0.637c3.054,0,4.58,0.915,4.58,2.745V143.328z"/>
	<path fill="#8E979D" d="M710.575,140.365v1.327h-4.489v7.144c0,1.272,0.569,1.908,1.708,1.908c1.115,0,1.673-0.569,1.673-1.708
		v-1.164h1.526v0.854c0,2.229-1.066,3.345-3.199,3.345c-2.205,0-3.308-0.939-3.308-2.817v-7.562h-1.6v-1.327h1.6v-2.763h1.6v2.763
		H710.575z"/>
	<path fill="#8E979D" d="M714.192,135.402v1.836h-1.617v-1.836H714.192z M714.192,140.365v11.524h-1.617v-11.524H714.192z"/>
	<path fill="#8E979D" d="M721.973,140.201c2.133,0,3.508,0.376,4.126,1.127v-0.018c0.643,0.751,0.964,2.363,0.964,4.835
		c0,2.46-0.321,4.065-0.964,4.817c-0.63,0.739-2.006,1.108-4.126,1.108c-2.133,0-3.515-0.369-4.145-1.108s-0.945-2.346-0.945-4.817
		c0-2.521,0.315-4.132,0.945-4.835v0.018C718.446,140.577,719.827,140.201,721.973,140.201z M721.964,141.528
		c-1.535,0-2.484,0.267-2.847,0.8c-0.17,0.255-0.303,0.697-0.398,1.327c-0.097,0.63-0.146,1.46-0.146,2.49s0.051,1.866,0.154,2.509
		c0.103,0.642,0.238,1.09,0.408,1.345v-0.019c0.338,0.51,1.28,0.764,2.828,0.764c1.498,0,2.429-0.248,2.791-0.745
		c0.17-0.278,0.309-0.745,0.417-1.399s0.163-1.473,0.163-2.454c0-1.03-0.055-1.864-0.163-2.499
		c-0.108-0.637-0.247-1.082-0.417-1.336C724.381,141.789,723.449,141.528,721.964,141.528z"/>
	<path fill="#8E979D" d="M729.734,140.365h1.563v1.709c0.4-0.618,0.922-1.085,1.563-1.4c0.643-0.314,1.418-0.473,2.327-0.473
		c1.672,0,2.793,0.291,3.362,0.873c0.569,0.569,0.854,1.678,0.854,3.326v7.489h-1.654v-7.78c0-0.509-0.048-0.929-0.146-1.263
		c-0.097-0.333-0.236-0.591-0.418-0.772c-0.424-0.364-1.163-0.546-2.218-0.546c-1.235,0-2.145,0.285-2.727,0.854
		c-0.581,0.569-0.872,1.424-0.872,2.563v6.943h-1.636V140.365z"/>
	<path fill="#8E979D" d="M748.438,151.89v-10.197h-1.764v-1.327h1.764v-1.764c0-2.241,1.157-3.362,3.472-3.362
		c0.146,0,0.315,0.01,0.509,0.026c0.194,0.02,0.418,0.04,0.673,0.064v1.327c-0.278-0.024-0.515-0.043-0.709-0.055
		c-0.193-0.012-0.339-0.019-0.437-0.019c-1.26,0-1.89,0.628-1.89,1.881v1.9h3.035v1.327h-3.035v10.197H748.438z"/>
	<path fill="#8E979D" d="M756.182,135.402v1.836h-1.617v-1.836H756.182z M756.182,140.365v11.524h-1.617v-11.524H756.182z"/>
	<path fill="#8E979D" d="M768.815,135.402v16.487h-1.618v-1.527c-0.812,1.14-2.054,1.709-3.727,1.709
		c-1.757,0-2.95-0.424-3.581-1.272c-0.666-0.885-0.999-2.496-0.999-4.835c0-2.146,0.327-3.647,0.981-4.508
		c0.314-0.4,0.766-0.709,1.354-0.927c0.587-0.219,1.299-0.328,2.135-0.328c0.873,0,1.627,0.138,2.264,0.409
		c0.636,0.273,1.16,0.664,1.572,1.173v-6.381H768.815z M763.744,141.528c-1.249,0-2.091,0.303-2.527,0.909
		c-0.424,0.569-0.636,1.739-0.636,3.508c0,1.951,0.218,3.242,0.654,3.872c0.412,0.618,1.26,0.927,2.545,0.927
		c1.417,0,2.332-0.314,2.744-0.945c0.206-0.303,0.37-0.781,0.491-1.436s0.182-1.509,0.182-2.563c0-1.66-0.236-2.78-0.709-3.362
		C765.991,141.831,765.076,141.528,763.744,141.528z"/>
	<path fill="#8E979D" d="M785.901,135.402v16.487h-1.617v-16.487H785.901z"/>
	<path fill="#8E979D" d="M790.555,135.402v1.836h-1.617v-1.836H790.555z M790.555,140.365v11.524h-1.617v-11.524H790.555z"/>
	<path fill="#8E979D" d="M799.662,140.365v1.327h-4.49v7.144c0,1.272,0.569,1.908,1.709,1.908c1.114,0,1.672-0.569,1.672-1.708
		v-1.164h1.527v0.854c0,2.229-1.066,3.345-3.199,3.345c-2.206,0-3.309-0.939-3.309-2.817v-7.562h-1.6v-1.327h1.6v-2.763h1.6v2.763
		H799.662z"/>
	<path fill="#8E979D" d="M829.163,147.781v0.618c0,2.448-1.611,3.672-4.835,3.672c-2.061,0-3.43-0.394-4.108-1.182
		c-0.666-0.775-0.999-2.375-0.999-4.799c0-2.29,0.345-3.835,1.036-4.635c0.69-0.836,1.975-1.255,3.854-1.255
		c1.842,0,3.12,0.285,3.835,0.854c0.303,0.242,0.542,0.628,0.719,1.154c0.175,0.528,0.275,1.154,0.299,1.882h-1.636v-0.273
		c0-0.872-0.224-1.478-0.673-1.817c-0.496-0.314-1.387-0.473-2.672-0.473c-0.654,0-1.191,0.079-1.607,0.236
		c-0.42,0.157-0.713,0.376-0.883,0.654c-0.169,0.279-0.303,0.739-0.399,1.382s-0.146,1.454-0.146,2.436c0,1.951,0.2,3.181,0.6,3.69
		c0.424,0.545,1.412,0.817,2.963,0.817c1.297,0,2.121-0.176,2.473-0.527c0.169-0.182,0.303-0.469,0.399-0.862
		s0.151-0.919,0.164-1.573H829.163z"/>
	<path fill="#8E979D" d="M833.198,135.402v16.487h-1.617v-16.487H833.198z"/>
	<path fill="#8E979D" d="M837.852,135.402v1.836h-1.617v-1.836H837.852z M837.852,140.365v11.524h-1.617v-11.524H837.852z"/>
	<path fill="#8E979D" d="M848.94,148.454h1.653v0.399c0,1.2-0.363,2.042-1.09,2.527c-0.703,0.46-1.97,0.69-3.8,0.69
		c-2.12,0-3.514-0.388-4.181-1.163c-0.666-0.775-0.999-2.412-0.999-4.908c0-2.314,0.327-3.854,0.981-4.617
		c0.69-0.787,1.999-1.182,3.926-1.182c2.133,0,3.521,0.346,4.163,1.036c0.666,0.631,0.999,2.061,0.999,4.29v0.891h-8.343
		c0,1.891,0.2,3.078,0.599,3.563c0.398,0.51,1.329,0.764,2.791,0.764c1.377,0,2.26-0.121,2.646-0.363
		c0.435-0.267,0.653-0.794,0.653-1.581V148.454z M848.94,145.164v-0.582c-0.037-0.654-0.104-1.178-0.2-1.572
		c-0.096-0.393-0.254-0.699-0.472-0.918c-0.374-0.375-1.263-0.563-2.665-0.563c-0.651,0-1.214,0.063-1.686,0.191
		c-0.471,0.126-0.81,0.3-1.014,0.518c-0.17,0.242-0.312,0.616-0.427,1.118c-0.115,0.503-0.179,1.105-0.19,1.809H848.94z"/>
	<path fill="#8E979D" d="M853.303,140.365h1.563v1.709c0.399-0.618,0.921-1.085,1.563-1.4c0.643-0.314,1.418-0.473,2.327-0.473
		c1.672,0,2.793,0.291,3.362,0.873c0.569,0.569,0.854,1.678,0.854,3.326v7.489h-1.654v-7.78c0-0.509-0.048-0.929-0.146-1.263
		c-0.097-0.333-0.235-0.591-0.418-0.772c-0.424-0.364-1.163-0.546-2.218-0.546c-1.235,0-2.145,0.285-2.727,0.854
		c-0.581,0.569-0.872,1.424-0.872,2.563v6.943h-1.636V140.365z"/>
	<path fill="#8E979D" d="M872.152,140.365v1.327h-4.49v7.144c0,1.272,0.57,1.908,1.709,1.908c1.115,0,1.672-0.569,1.672-1.708
		v-1.164h1.527v0.854c0,2.229-1.066,3.345-3.199,3.345c-2.205,0-3.309-0.939-3.309-2.817v-7.562h-1.6v-1.327h1.6v-2.763h1.6v2.763
		H872.152z"/>
	<path fill="#8E979D" d="M780.33,148.219h1.762v0.428c0,1.22-0.373,2.071-1.11,2.563c-0.736,0.485-2.026,0.729-3.87,0.729
		c-2.162,0-3.591-0.388-4.252-1.191c-0.66-0.78-1.006-2.445-1.006-4.975c0-2.308,0.346-3.893,1.006-4.677
		c0.675-0.813,2.009-1.225,3.984-1.225c2.176,0,3.567,0.356,4.219,1.065c0.703,0.672,1.029,2.133,1.029,4.368v0.921h-8.432
		c0,1.847,0.196,3.021,0.59,3.522c0.379,0.527,1.33,0.769,2.772,0.769c1.396,0,2.278-0.137,2.682-0.385
		c0.428-0.234,0.626-0.757,0.626-1.554V148.219z M780.33,144.878l-0.014-0.563c0-1.244-0.207-2.053-0.629-2.434
		c-0.403-0.4-1.301-0.578-2.675-0.578c-1.395,0-2.307,0.215-2.708,0.663c-0.418,0.441-0.612,1.416-0.612,2.912H780.33z
		 M779.022,135.215l0.886,1.188l-3.602,2.217l-0.593-0.9L779.022,135.215z"/>
	<path fill="#8E979D" d="M809.605,148.219h1.763v0.428c0,1.22-0.374,2.071-1.11,2.563c-0.736,0.485-2.026,0.729-3.871,0.729
		c-2.161,0-3.59-0.388-4.252-1.191c-0.659-0.78-1.006-2.445-1.006-4.975c0-2.308,0.347-3.893,1.006-4.677
		c0.675-0.813,2.01-1.225,3.984-1.225c2.177,0,3.568,0.356,4.22,1.065c0.703,0.672,1.029,2.133,1.029,4.368v0.921h-8.433
		c0,1.847,0.197,3.021,0.591,3.522c0.379,0.527,1.33,0.769,2.772,0.769c1.395,0,2.278-0.137,2.682-0.385
		c0.428-0.234,0.625-0.757,0.625-1.554V148.219z M809.605,144.878l-0.013-0.563c0-1.244-0.208-2.053-0.629-2.434
		c-0.403-0.4-1.301-0.578-2.675-0.578c-1.395,0-2.308,0.215-2.708,0.663c-0.419,0.441-0.612,1.416-0.612,2.912H809.605z
		 M808.299,135.215l0.885,1.188l-3.601,2.217l-0.593-0.9L808.299,135.215z"/>
</g>
<g>
	<path fill="#004785" d="M12.206,121.814l13.458-71.497h20.539l-13.43,71.497H12.206z"/>
	<path fill="#004785" d="M134.335,67.503l-10.239,54.403h-20.258l13.465-71.589h57.406l-3.245,17.186H134.335z"/>
	<path fill="#004785" d="M244.495,121.906l0.943-5.007c-0.741,1.233-2.172,2.339-4.021,3.492c-1.944,1.009-3.562,1.515-4.902,1.515
		h-58.195c-1.55,0-3.1-0.388-4.485-1.233c-1.383-0.806-2.493-1.926-3.263-3.37c-0.716-1.532-0.92-3.163-0.572-5.016
		c0.66-3.477,1.395-7.954,2.411-13.382c0.899-5.321,1.452-8.184,1.512-8.505c0.755-4.088,2.468-7.244,5.067-9.518
		c2.571-2.348,5.232-3.459,8.109-3.459h55.046c2.546,0,4.571,0.613,6.285,1.956c1.662,1.308,2.775,2.528,3.356,3.868l1.206-6.545
		c0.249-1.343,0.121-2.79-0.42-4.201c-0.559-1.435-1.46-2.557-2.826-3.503c-1.269-0.897-2.995-1.411-4.945-1.411h-65.885
		l3.259-17.271h74.249c3.17,0,6.007,0.702,8.477,2.227c2.487,1.533,4.551,3.604,6.247,6.042c1.678,2.47,2.864,4.924,3.58,7.565
		c0.633,2.677,0.786,5.027,0.42,7.072l-9.164,48.683H244.495z M244.052,97.146c-0.485-0.706-1.19-1.327-2.119-1.841
		c-0.858-0.39-1.621-0.602-2.238-0.602h-40.624c-1.826,0-3.279,0.602-4.207,1.841c-0.98,1.322-1.551,2.247-1.699,2.962
		c-0.283,1.532,0.017,2.648,0.758,3.584c0.752,0.934,1.706,1.327,2.619,1.327H239c0.91,0,2.027-0.504,3.341-1.438
		c1.308-1.031,2.03-2.137,2.253-3.345C244.775,98.694,244.625,97.867,244.052,97.146z"/>
	<path fill="#004785" d="M296.474,121.906c-3.175,0-6.169-1.111-8.782-3.386c-2.623-2.332-4.574-5.009-5.935-8.068
		c-1.487-3.079-1.945-5.549-1.609-7.273l9.939-52.861h19.848l-8.075,42.959c-0.46,2.432-0.143,4.509,0.742,6.358
		c1.002,1.725,2.259,3.159,3.944,4.06c1.597,0.831,3.022,1.352,4.121,1.352h48.903l-3.147,16.86H296.474z"/>
</g>
<polygon fill="#8E979D" points="78.087,121.814 88.32,67.393 51.191,67.393 54.42,50.219 111.818,50.219 98.329,121.814 "/>
<path fill="#8E979D" d="M389.139,121.906c-5.726,0-10.299-1.233-13.614-3.574c-3.388-2.342-5.721-5.101-6.834-8.392
	c-1.005-3.377-1.351-6.444-0.804-9.32l5.715-30.377c0.626-3.257,2.341-6.428,5.152-9.499c2.833-3.07,5.984-5.638,9.421-7.583
	c3.431-1.956,6.252-2.844,8.304-2.844h61.082l-3.165,16.768h-47.762c-1.85,0-3.672,0.503-5.755,1.639
	c-1.94,1.13-3.614,2.455-5.049,4.069c-1.429,1.67-2.332,3.187-2.61,4.631l-3.171,16.76c-0.293,1.636-0.171,3.187,0.471,4.722
	c0.524,1.535,1.517,2.756,2.944,3.781c1.46,1.008,3.209,1.514,5.139,1.514h49.226l-3.34,17.706H389.139z"/>
<path fill="#8E979D" d="M530.219,121.906l0.94-5.007c-0.749,1.233-2.18,2.339-4.023,3.492c-1.944,1.009-3.565,1.515-4.896,1.515
	h-58.213c-1.542,0-3.094-0.388-4.479-1.233c-1.389-0.806-2.491-1.926-3.257-3.37c-0.732-1.532-0.923-3.163-0.587-5.016
	c0.659-3.477,1.404-7.954,2.417-13.382c0.896-5.321,1.46-8.184,1.497-8.505c0.775-4.088,2.5-7.244,5.067-9.518
	c2.57-2.348,5.266-3.459,8.122-3.459h55.035c2.567,0,4.599,0.613,6.293,1.956c1.688,1.308,2.774,2.528,3.354,3.868l1.229-6.545
	c0.26-1.343,0.107-2.79-0.451-4.201c-0.54-1.435-1.465-2.557-2.799-3.503c-1.279-0.897-2.998-1.411-4.952-1.411h-65.885
	l3.252-17.271h74.257c3.194,0,6.008,0.702,8.489,2.227c2.452,1.533,4.549,3.604,6.233,6.042c1.698,2.47,2.86,4.924,3.582,7.565
	c0.634,2.677,0.786,5.027,0.42,7.072l-9.166,48.683H530.219z M529.742,97.146c-0.463-0.706-1.156-1.327-2.104-1.841
	c-0.846-0.39-1.605-0.602-2.225-0.602h-40.618c-1.844,0-3.263,0.602-4.222,1.841c-0.979,1.322-1.56,2.247-1.709,2.962
	c-0.276,1.532,0.03,2.648,0.76,3.584c0.769,0.934,1.715,1.327,2.619,1.327h42.462c0.931,0,2.038-0.504,3.346-1.438
	c1.317-1.031,2.039-2.137,2.258-3.345C530.5,98.694,530.335,97.867,529.742,97.146z"/>
<path fill="#8E979D" d="M632.035,129.868l-19.979-32.062h-25.969l-5.146,23.917h-20.22l8.706-42.316h63.054
	c1.319,0,2.589-0.552,4.119-1.578c1.357-0.968,2.24-2.365,2.598-4.268c0.28-1.334,0.122-2.319-0.266-3.177
	c-0.479-0.758-1.139-1.332-1.957-1.661c-0.91-0.452-1.905-0.525-3.004-0.525h-62.35l3.486-17.881h76.11
	c3.554,0,6.404,1.4,8.355,4.199c2.036,2.796,2.609,6.194,1.854,10.166l-3.676,19.215c-0.679,3.387-1.82,6.042-3.48,7.893
	c-1.661,1.873-3.419,3.174-5.229,3.839c-1.817,0.792-3.907,1.206-6.273,1.529c-2.345,0.318-3.706,0.587-4.079,0.648l19.428,32.062
	H632.035z"/>
<path fill="#8E979D" d="M690.319,94.369l-5.503,27.48l-19.813,0.057l8.353-44.656h57.172l-3.231,17.119H690.319z"/>
<path fill="#8E979D" d="M674.659,67.375l3.614-16.494h57.172l-2.861,16.494H674.659z"/>
<path fill="#8E979D" d="M739.318,121.906l8.265-44.656h20.167l-7.948,44.656H739.318z"/>
<path fill="#8E979D" d="M749.625,67.375l2.97-16.5h20.456l-3.008,16.5H749.625z"/>
<path fill="#8E979D" d="M851.836,50.606c5.703,0,10.258,1.228,13.56,3.56c3.374,2.332,5.697,5.08,6.807,8.357
	c1.001,3.363,1.344,6.418,0.8,9.282l-5.691,30.251c-0.623,3.245-2.332,6.404-5.132,9.464c-2.821,3.056-5.958,5.614-9.382,7.549
	c-3.417,1.951-6.227,2.837-8.27,2.837h-60.834l3.152-16.701h47.567c1.842,0,3.657-0.5,5.73-1.633c1.934-1.126,3.6-2.446,5.028-4.053
	c1.423-1.663,2.323-3.174,2.6-4.612l3.158-16.689c0.292-1.63,0.171-3.174-0.468-4.703c-0.522-1.529-1.511-2.746-2.934-3.768
	c-1.453-1.003-3.195-1.508-5.116-1.508h-29.411l-9.825,53.667h-19.482l13.018-71.3H851.836z"/>
</svg>
